RBDS021runT25_grf
version=1
nRows=12
nColumns=19
inDegrees=no
endheader
time	ground_force_r_vx	ground_force_r_vy	ground_force_r_vz	ground_force_r_px	ground_force_r_py	ground_force_r_pz	ground_force_r_mx	ground_force_r_my	ground_force_r_mz	ground_force_l_vx	ground_force_l_vy	ground_force_l_vz	ground_force_l_px	ground_force_l_py	ground_force_l_pz	ground_force_l_mx	ground_force_l_my	ground_force_l_mz
     22.49800000	      0.00000000	      0.00000000	      0.00000000	      0.00000000	      0.00000000	      0.00000000	      0.00000000	      0.00000000	      0.00000000	    -32.44811035	   1473.79167250	     93.34204282	      1.84126699	      0.00000000	      0.90861527	     -0.00000000	     10.02467538	     -0.00000000
     22.49900000	      0.00000000	      0.00000000	      0.00000000	      0.00000000	      0.00000000	      0.00000000	      0.00000000	      0.00000000	      0.00000000	    -28.70041517	   1470.15502640	     93.02488350	      1.83905513	      0.00000000	      0.90856866	     -0.00000000	     10.04387134	     -0.00000000
     22.50000000	      0.00000000	      0.00000000	      0.00000000	      0.00000000	      0.00000000	      0.00000000	      0.00000000	      0.00000000	      0.00000000	    -24.95271999	   1466.51838030	     92.70772418	      1.83684327	      0.00000000	      0.90852205	     -0.00000000	     10.06306730	     -0.00000000
     22.50100000	      0.00000000	      0.00000000	      0.00000000	      0.00000000	      0.00000000	      0.00000000	      0.00000000	      0.00000000	      0.00000000	    -21.25557220	   1462.03182693	     92.22118465	      1.83461846	      0.00000000	      0.90849656	     -0.00000000	     10.06660010	     -0.00000000
     22.50200000	      0.00000000	      0.00000000	      0.00000000	      0.00000000	      0.00000000	      0.00000000	      0.00000000	      0.00000000	      0.00000000	    -17.55842440	   1457.54527356	     91.73464513	      1.83239364	      0.00000000	      0.90847107	     -0.00000000	     10.07013290	     -0.00000000
     22.50300000	      0.00000000	      0.00000000	      0.00000000	      0.00000000	      0.00000000	      0.00000000	      0.00000000	      0.00000000	      0.00000000	    -13.86127660	   1453.05872019	     91.24810560	      1.83016883	      0.00000000	      0.90844557	     -0.00000000	     10.07366570	     -0.00000000
     22.50400000	      0.00000000	      0.00000000	      0.00000000	      0.00000000	      0.00000000	      0.00000000	      0.00000000	      0.00000000	      0.00000000	    -10.21592780	   1447.98854629	     90.65864163	      1.82793629	      0.00000000	      0.90843351	     -0.00000000	     10.06752841	      0.00000000
     22.50500000	      0.00000000	      0.00000000	      0.00000000	      0.00000000	      0.00000000	      0.00000000	      0.00000000	      0.00000000	      0.00000000	     -6.59647851	   1442.62656214	     90.01771545	      1.82569988	      0.00000000	      0.90842816	     -0.00000000	     10.05655607	      0.00000000
     22.50600000	      0.00000000	      0.00000000	      0.00000000	      0.00000000	      0.00000000	      0.00000000	      0.00000000	      0.00000000	      0.00000000	     -2.97702922	   1437.26457799	     89.37678927	      1.82346347	      0.00000000	      0.90842281	     -0.00000000	     10.04558374	      0.00000000
     22.50700000	      0.00000000	      0.00000000	      0.00000000	      0.00000000	      0.00000000	      0.00000000	      0.00000000	      0.00000000	      0.00000000	      0.60791136	   1431.60436318	     88.68973689	      1.82122365	      0.00000000	      0.90842378	     -0.00000000	     10.03020431	      0.00000000
     22.50800000	      0.00000000	      0.00000000	      0.00000000	      0.00000000	      0.00000000	      0.00000000	      0.00000000	      0.00000000	      0.00000000	      4.12383451	   1425.34768704	     87.91043211	      1.81897702	      0.00000000	      0.90843739	     -0.00000000	     10.00601070	      0.00000000
     22.50900000	      0.00000000	      0.00000000	      0.00000000	      0.00000000	      0.00000000	      0.00000000	      0.00000000	      0.00000000	      0.00000000	      7.63975767	   1419.09101090	     87.13112733	      1.81673039	      0.00000000	      0.90845099	     -0.00000000	      9.98181709	      0.00000000
